<svg aria-hidden="false" aria-label="Interactive chart" viewBox="0 0 650 400" height="400" width="650" xmlns="http://www.w3.org/2000/svg" style="font-family: Roboto; font-size: 12px;" class="highcharts-root" version="1.1" xmlns:xlink="http://www.w3.org/1999/xlink"><desc aria-hidden="true">Created with Highcharts 10.3.1</desc><defs aria-hidden="true"><clipPath id="highcharts-tvgzrfb-21-"><rect fill="none" height="300" width="630" y="0" x="0"></rect></clipPath></defs><rect aria-hidden="true" ry="0" rx="0" height="400" width="650" y="0" x="0" class="highcharts-background" fill="#ffffff"></rect><rect aria-hidden="true" height="300" width="630" y="47" x="10" class="highcharts-plot-background" fill="none"></rect><g aria-hidden="true" data-z-index="0" class="highcharts-pane-group"></g><rect aria-hidden="true" height="300" width="630" y="47" x="10" data-z-index="1" class="highcharts-plot-border" fill="none"></rect><g aria-hidden="false" data-z-index="3" class="highcharts-series-group"><g aria-hidden="false" clip-path="none" transform="translate(10,47) scale(1 1)" opacity="1" data-z-index="0.1" class="highcharts-series highcharts-series-0 highcharts-pie-series"><path style="outline: none;" aria-label="Item 1, 80." role="img" tabindex="-1" class="highcharts-point highcharts-color-0" stroke-linejoin="round" opacity="1" stroke-width="1" stroke="#ffffff" transform="translate(0,0)" d="M 314.97678125477876 36.00000236451814 A 114 114 0 0 1 369.3337218732655 250.2189935461269 L 315 150 A 0 0 0 0 0 315 150 Z" fill="#94d13d"></path><path style="outline: none;" aria-label="Item 2, 60." role="img" tabindex="-1" class="highcharts-point highcharts-color-1" stroke-linejoin="round" opacity="1" stroke-width="1" stroke="#ffffff" transform="translate(0,0)" d="M 369.2334757295639 250.27327714945193 A 114 114 0 0 1 201.39806882798973 159.51846804847523 L 315 150 A 0 0 0 0 0 315 150 Z" fill="#6f58e9"></path><path style="outline: none;" aria-label="Item 3, 30." role="img" tabindex="-1" class="highcharts-point highcharts-color-2" stroke-linejoin="round" opacity="1" stroke-width="1" stroke="#ffffff" transform="translate(0,0)" d="M 201.38860716248854 159.40486137700324 A 114 114 0 0 1 244.8897290760845 60.10812099541377 L 315 150 A 0 0 0 0 0 315 150 Z" fill="#2d99fe"></path><path style="outline: none;" aria-label="Item 4, 20." role="img" tabindex="-1" class="highcharts-point highcharts-color-3" stroke-linejoin="round" opacity="1" stroke-width="1" stroke="#ffffff" transform="translate(0,0)" d="M 244.97965599523968 60.03805568211064 A 114 114 0 0 1 314.84165628705983 36.000109968173334 L 315 150 A 0 0 0 0 0 315 150 Z" fill="#2ddac1"></path></g><g aria-hidden="true" clip-path="none" transform="translate(10,47) scale(1 1)" opacity="1" data-z-index="0.1" class="highcharts-markers highcharts-series-0 highcharts-pie-series"></g></g><text aria-hidden="true" y="24" style="color: rgb(51, 51, 51); font-size: 18px; fill: rgb(51, 51, 51);" data-z-index="4" class="highcharts-title" text-anchor="middle" x="325">Chart title</text><text aria-hidden="true" y="46" style="color: rgb(102, 102, 102); fill: rgb(102, 102, 102);" data-z-index="4" class="highcharts-subtitle" text-anchor="middle" x="325"></text><text aria-hidden="true" y="397" style="color: rgb(102, 102, 102); fill: rgb(102, 102, 102);" data-z-index="4" class="highcharts-caption" text-anchor="start" x="10"></text><g aria-hidden="true" transform="translate(175,359)" data-z-index="7" class="highcharts-legend highcharts-no-tooltip"><rect height="26" width="299" y="0" x="0" ry="0" rx="0" class="highcharts-legend-box" fill="none"></rect><g data-z-index="1"><g><g transform="translate(8,3)" data-z-index="1" class="highcharts-legend-item highcharts-pie-series highcharts-color-0"><text style="color: rgb(51, 51, 51); cursor: pointer; font-size: 12px; font-weight: bold; fill: rgb(51, 51, 51);" y="15" data-z-index="2" text-anchor="start" x="21">Item 1</text><rect data-z-index="3" class="highcharts-point" ry="6" rx="6" fill="#94d13d" height="12" width="12" y="4" x="2"></rect></g><g transform="translate(83.78125,3)" data-z-index="1" class="highcharts-legend-item highcharts-pie-series highcharts-color-1"><text style="color: rgb(51, 51, 51); cursor: pointer; font-size: 12px; font-weight: bold; fill: rgb(51, 51, 51);" data-z-index="2" text-anchor="start" y="15" x="21">Item 2</text><rect data-z-index="3" class="highcharts-point" ry="6" rx="6" fill="#6f58e9" height="12" width="12" y="4" x="2"></rect></g><g transform="translate(159.5625,3)" data-z-index="1" class="highcharts-legend-item highcharts-pie-series highcharts-color-2"><text style="color: rgb(51, 51, 51); cursor: pointer; font-size: 12px; font-weight: bold; fill: rgb(51, 51, 51);" data-z-index="2" text-anchor="start" y="15" x="21">Item 3</text><rect data-z-index="3" class="highcharts-point" ry="6" rx="6" fill="#2d99fe" height="12" width="12" y="4" x="2"></rect></g><g transform="translate(235.34375,3)" data-z-index="1" class="highcharts-legend-item highcharts-pie-series highcharts-color-3"><text style="color: rgb(51, 51, 51); cursor: pointer; font-size: 12px; font-weight: bold; fill: rgb(51, 51, 51);" data-z-index="2" text-anchor="start" y="15" x="21">Item 4</text><rect data-z-index="3" class="highcharts-point" ry="6" rx="6" fill="#2ddac1" height="12" width="12" y="4" x="2"></rect></g></g></g></g><text aria-hidden="false" aria-label="Chart credits: Highcharts.com" style="cursor: pointer; color: rgb(153, 153, 153); font-size: 9px; fill: rgb(153, 153, 153);" y="395" data-z-index="8" text-anchor="end" class="highcharts-credits" x="640">Highcharts.com</text></svg>